<svg width="22" height="15" viewBox="0 0 22 15" fill="none" xmlns="http://www.w3.org/2000/svg">
<path fill-rule="evenodd" clip-rule="evenodd" d="M17.3603 10.6246C18.7437 9.62741 19.3741 8.4249 19.3741 7.2973C19.3741 6.16971 18.7437 4.96719 17.3603 3.96999C15.9798 2.97482 13.9719 2.2973 11.6631 2.2973C9.35434 2.2973 7.3465 2.97482 5.96594 3.96999C5.86224 4.04474 5.76276 4.12065 5.66747 4.19759L3.87117 3.65414L4.91573 4.92133C4.25944 5.68626 3.95216 6.51004 3.95216 7.2973C3.95216 8.4249 4.58253 9.62741 5.96594 10.6246C7.3465 11.6198 9.35434 12.2973 11.6631 12.2973C13.9719 12.2973 15.9798 11.6198 17.3603 10.6246ZM11.6631 14.2973C17.0264 14.2973 21.3741 11.1633 21.3741 7.2973C21.3741 3.4313 17.0264 0.297302 11.6631 0.297302C8.90759 0.297302 6.4201 1.1246 4.65263 2.45343L0.0389404 1.05763L2.80903 4.41809C2.25857 5.29628 1.95216 6.271 1.95216 7.2973C1.95216 11.1633 6.29991 14.2973 11.6631 14.2973Z" fill="black"/>
</svg>
