<svg width="21" height="18" viewBox="0 0 21 18" fill="black" xmlns="http://www.w3.org/2000/svg">
<path fill-rule="evenodd" clip-rule="evenodd" d="M2.03517 2.67974C0.0179076 4.69701 -0.127684 7.92722 1.77487 10.053C2.67909 11.0633 3.6293 12.0939 4.42843 12.8923C5.68584 14.1486 7.36575 15.6289 8.64835 16.7276L8.97028 17.0495C9.36395 17.4432 9.88393 17.6406 10.4025 17.6332C10.9212 17.6406 11.4413 17.4432 11.8349 17.0495L12.1569 16.7276C13.4395 15.6289 15.1194 14.1486 16.3768 12.8923C17.1759 12.0939 18.1261 11.0633 19.0303 10.053C20.9329 7.92722 20.7873 4.69701 18.77 2.67974L18.4464 2.35616C16.2986 0.208267 12.8162 0.208267 10.6683 2.35616L10.4026 2.62183L10.1369 2.35616C7.98905 0.208267 4.50665 0.208267 2.35876 2.35616L2.03517 2.67974Z"/>
</svg>
